<svg width="24" height="28" viewBox="0 0 24 28" fill="none" xmlns="http://www.w3.org/2000/svg">
<path d="M4.50933 3.29064C6.63432 1.58806 9.27707 0.662299 12 0.666641C14.8333 0.666641 17.4373 1.64797 19.4907 3.29064L21.428 1.35331L23.3133 3.23864L21.376 5.17597C23.0786 7.30096 24.0043 9.94371 24 12.6666V14H0V12.6666C0 9.83331 0.981333 7.22931 2.624 5.17597L0.686667 3.23997L2.572 1.35464L4.50933 3.29197V3.29064ZM0 16.6666H24V26C24 26.3536 23.8595 26.6927 23.6095 26.9428C23.3594 27.1928 23.0203 27.3333 22.6667 27.3333H1.33333C0.979711 27.3333 0.640573 27.1928 0.390524 26.9428C0.140476 26.6927 0 26.3536 0 26V16.6666ZM8 9.99998C8.35362 9.99998 8.69276 9.8595 8.94281 9.60945C9.19286 9.3594 9.33333 9.02026 9.33333 8.66664C9.33333 8.31302 9.19286 7.97388 8.94281 7.72383C8.69276 7.47378 8.35362 7.33331 8 7.33331C7.64638 7.33331 7.30724 7.47378 7.05719 7.72383C6.80714 7.97388 6.66667 8.31302 6.66667 8.66664C6.66667 9.02026 6.80714 9.3594 7.05719 9.60945C7.30724 9.8595 7.64638 9.99998 8 9.99998ZM16 9.99998C16.3536 9.99998 16.6928 9.8595 16.9428 9.60945C17.1929 9.3594 17.3333 9.02026 17.3333 8.66664C17.3333 8.31302 17.1929 7.97388 16.9428 7.72383C16.6928 7.47378 16.3536 7.33331 16 7.33331C15.6464 7.33331 15.3072 7.47378 15.0572 7.72383C14.8071 7.97388 14.6667 8.31302 14.6667 8.66664C14.6667 9.02026 14.8071 9.3594 15.0572 9.60945C15.3072 9.8595 15.6464 9.99998 16 9.99998Z" fill="white"/>
</svg>
