<svg width="23" height="28" viewBox="0 0 23 28" fill="none" xmlns="http://www.w3.org/2000/svg">
<path d="M11.5099 8.32858C10.4107 8.32858 8.70936 7.13095 6.91765 7.17424C4.55379 7.2031 2.38566 8.4873 1.16609 10.5218C-1.2881 14.6053 0.533722 20.6368 2.92769 23.9555C4.10209 25.5716 5.48729 27.3897 7.32417 27.332C9.08577 27.2598 9.74825 26.2353 11.8863 26.2353C14.0092 26.2353 14.6115 27.332 16.4785 27.2887C18.3756 27.2598 19.5801 25.6437 20.7394 24.0132C22.0795 22.1374 22.6366 20.3193 22.6667 20.2183C22.6215 20.2039 18.9778 18.862 18.9327 14.8218C18.9026 11.4453 21.8084 9.82923 21.944 9.75708C20.2878 7.43396 17.7432 7.17424 16.8549 7.11652C14.5362 6.94337 12.5939 8.32858 11.5099 8.32858ZM15.4245 4.92327C16.4032 3.79778 17.0506 2.22499 16.8699 0.666626C15.4697 0.724343 13.7834 1.56124 12.7746 2.68673C11.8712 3.68235 11.0883 5.284 11.2991 6.8135C12.8499 6.92894 14.4459 6.04875 15.4245 4.92327Z" fill="white"/>
</svg>
