<svg width="32" height="32" viewBox="0 0 32 32" fill="none" xmlns="http://www.w3.org/2000/svg">
<path fill-rule="evenodd" clip-rule="evenodd" d="M3.99984 2.66663C3.26346 2.66663 2.6665 3.26358 2.6665 3.99996V26.6666C2.6665 28.1394 3.86041 29.3333 5.33317 29.3333H22.6665V3.99996C22.6665 3.26358 22.0696 2.66663 21.3332 2.66663H3.99984ZM6.6665 6.66663H14.6665V14.6666H6.6665V6.66663ZM6.6665 18.6666H18.6665V20H6.6665V18.6666ZM18.6665 21.3333H6.6665V22.6666H18.6665V21.3333ZM6.6665 24H18.6665V25.3333H6.6665V24Z" fill="white"/>
<path opacity="0.5" d="M24 16H28C28.7364 16 29.3333 16.597 29.3333 17.3333V28C29.3333 28.7364 28.7364 29.3333 28 29.3333H24V16Z" fill="white"/>
</svg>
