<svg width="25" height="25" viewBox="0 0 25 25" fill="none" xmlns="http://www.w3.org/2000/svg">
<path d="M21.1125 1.31372C21.7791 0.647054 22.1125 0.313721 22.5267 0.313721C22.9409 0.313721 23.2742 0.647054 23.9409 1.31372C24.6076 1.98039 24.9409 2.31372 24.9409 2.72793C24.9409 3.14215 24.6076 3.47548 23.9409 4.14215L15.4556 12.6274L23.9409 21.1127C24.6076 21.7794 24.9409 22.1127 24.9409 22.5269C24.9409 22.9411 24.6076 23.2745 23.9409 23.9411C23.2742 24.6078 22.9409 24.9411 22.5267 24.9411C22.1125 24.9411 21.7791 24.6078 21.1125 23.9411L12.6272 15.4559L4.1419 23.9411C3.47524 24.6078 3.1419 24.9411 2.72769 24.9411C2.31348 24.9411 1.98014 24.6078 1.31348 23.9411C0.64681 23.2745 0.313477 22.9411 0.313477 22.5269C0.313477 22.1127 0.64681 21.7794 1.31348 21.1127L9.79876 12.6274L1.31348 4.14215C0.646811 3.47548 0.313478 3.14215 0.313478 2.72793C0.313478 2.72793 0.313478 2.72793 0.313478 2.72793C0.313478 2.31372 0.646811 1.98039 1.31348 1.31372C1.98014 0.647054 2.31348 0.313721 2.72769 0.313721C2.72769 0.313721 2.72769 0.313721 2.72769 0.313721C3.1419 0.313721 3.47524 0.647054 4.1419 1.31372L12.6272 9.799L21.1125 1.31372Z" fill="white"/>
</svg>
