<svg width="6" height="10" viewBox="0 0 6 10" fill="none" xmlns="http://www.w3.org/2000/svg">
<path d="M3.70734 4.92601L0.878673 2.09734C0.65652 1.87519 0.545443 1.76411 0.54541 1.62609C0.545443 1.48806 0.656519 1.37683 0.878672 1.15467C1.10083 0.93252 1.2119 0.821444 1.34993 0.821411C1.48795 0.821444 1.59919 0.93252 1.82134 1.15467L5.12127 4.4546C5.34349 4.67682 5.4546 4.78794 5.4546 4.92601C5.4546 5.06408 5.34349 5.17519 5.12127 5.39741L1.82134 8.69734C1.59919 8.91949 1.48811 9.03057 1.35008 9.0306C1.21206 9.03057 1.10082 8.91949 0.878672 8.69734C0.656519 8.47519 0.545443 8.36411 0.54541 8.22609C0.545443 8.08806 0.656519 7.97683 0.878672 7.75467L3.70734 4.92601Z" fill="#202020"/>
</svg>
