<svg width="28" height="24" viewBox="0 0 28 24" fill="none" xmlns="http://www.w3.org/2000/svg">
<path d="M1.99984 0H25.9998C26.3535 0 26.6926 0.140476 26.9426 0.390524C27.1927 0.640573 27.3332 0.979711 27.3332 1.33333V22.6667C27.3332 23.0203 27.1927 23.3594 26.9426 23.6095C26.6926 23.8595 26.3535 24 25.9998 24H1.99984C1.64622 24 1.30708 23.8595 1.05703 23.6095C0.80698 23.3594 0.666504 23.0203 0.666504 22.6667V1.33333C0.666504 0.979711 0.80698 0.640573 1.05703 0.390524C1.30708 0.140476 1.64622 0 1.99984 0ZM13.9998 16V18.6667H21.9998V16H13.9998ZM9.2185 12L5.44784 15.7707L7.33317 17.6573L12.9905 12L7.33317 6.34267L5.44784 8.22933L9.2185 12Z" fill="white"/>
</svg>
