<svg width="80" height="40" viewBox="0 0 80 40" fill="none" xmlns="http://www.w3.org/2000/svg">
<path d="M17.4013 40H25.6232L30.0158 0H24.6096L21.3996 31.7714L18.3023 0H12.3329L9.34826 31.5429L6.02568 0H0L4.39255 40H12.8961L15.1487 18.6857L17.4013 40Z" fill="white"/>
<path d="M42.1503 5.71429H52.8501V0H35.9557V40H52.8501V34.2857H42.1503V22.5714H50.6538V16.8571H42.1503V5.71429Z" fill="white"/>
<path d="M69.2921 0H59.9439V40H69.6863C75.881 40 79.0909 36.6857 79.0909 30.5143V27.2571C79.0909 23.0286 77.7957 20 74.4731 18.6857C77.2325 17.3714 78.4715 14.7429 78.4715 10.6286V9.2C78.4715 3.02857 75.712 0 69.2921 0ZM68.8979 22C71.7137 22 72.8963 23.1429 72.8963 26.8571V30.3429C72.8963 33.3143 71.77 34.2857 69.6863 34.2857H66.1385V22H68.8979ZM69.1232 5.71429C71.3195 5.71429 72.2768 6.97143 72.2768 9.82857V12.0571C72.2768 15.2571 70.8689 16.2857 68.56 16.2857H66.1385V5.71429H69.1232Z" fill="white"/>
</svg>
