<svg width="174" height="40" viewBox="0 0 174 40" fill="none" xmlns="http://www.w3.org/2000/svg">
<g clip-path="url(#clip0_439_371)">
<path d="M17.4013 40H25.6232L30.0158 0H24.6096L21.3996 31.7714L18.3023 0H12.3329L9.34826 31.5429L6.02568 0H0L4.39255 40H12.8961L15.1487 18.6857L17.4013 40Z" fill="white"/>
<path d="M42.1503 5.71429H52.8501V0H35.9557V40H52.8501V34.2857H42.1503V22.5714H50.6538V16.8571H42.1503V5.71429Z" fill="white"/>
<path d="M69.2921 0H59.9439V40H69.6863C75.881 40 79.0909 36.6857 79.0909 30.5143V27.2571C79.0909 23.0286 77.7957 20 74.4731 18.6857C77.2325 17.3714 78.4715 14.7429 78.4715 10.6286V9.2C78.4715 3.02857 75.712 0 69.2921 0ZM68.8979 22C71.7137 22 72.8963 23.1429 72.8963 26.8571V30.3429C72.8963 33.3143 71.77 34.2857 69.6863 34.2857H66.1385V22H68.8979ZM69.1232 5.71429C71.3195 5.71429 72.2768 6.97143 72.2768 9.82857V12.0571C72.2768 15.2571 70.8689 16.2857 68.56 16.2857H66.1385V5.71429H69.1232Z" fill="white"/>
<path d="M114.107 0H105.455V40H110.883V11.7143L115.52 40H121.402L125.699 11.3143V40H131.581V0H122.929L118.687 28.4L114.107 0Z" fill="white"/>
<path d="M138.494 33.9429V40H144.488V33.9429H138.494Z" fill="white"/>
<path d="M153.11 40H159.331V26.7429L167.191 0H161.253L156.503 18.2286L151.753 0H145.25L153.11 26.7429V40Z" fill="white"/>
<path d="M168.006 33.9429V40H174V33.9429H168.006Z" fill="white"/>
<path d="M92.2727 0H101.061L92.2727 40H83.4849L92.2727 0Z" fill="#FFC700"/>
</g>
<defs>
<clipPath id="clip0_439_371">
<rect width="174" height="40" fill="white"/>
</clipPath>
</defs>
</svg>
