<svg width="25" height="25" viewBox="0 0 25 25" fill="none" xmlns="http://www.w3.org/2000/svg">
<path d="M17.2986 17.6773L14.348 23.8773C14.2921 23.9946 14.2086 24.0964 14.1046 24.1742C14.0006 24.2519 13.8793 24.3032 13.751 24.3235C13.6228 24.3439 13.4915 24.3327 13.3686 24.291C13.2456 24.2492 13.1347 24.1782 13.0453 24.084L8.32263 19.0987C8.19646 18.9656 8.02842 18.8799 7.84663 18.856L1.0373 17.9653C0.908647 17.9484 0.78605 17.9004 0.680081 17.8255C0.574111 17.7506 0.487949 17.6511 0.429027 17.5354C0.370105 17.4198 0.34019 17.2916 0.341863 17.1619C0.343537 17.0321 0.376747 16.9047 0.438631 16.7907L3.7213 10.7587C3.80856 10.5973 3.83775 10.4109 3.80397 10.2307L2.54663 3.48C2.52276 3.35222 2.53037 3.22055 2.56883 3.09638C2.60729 2.97221 2.67542 2.85928 2.76734 2.76737C2.85925 2.67545 2.97218 2.60732 3.09635 2.56886C3.22052 2.53041 3.35219 2.52279 3.47996 2.54667L10.2306 3.804C10.4109 3.83778 10.5973 3.8086 10.7586 3.72133L16.7906 0.438665C16.9048 0.376764 17.0323 0.343581 17.1621 0.34198C17.292 0.340379 17.4203 0.370409 17.5359 0.429477C17.6515 0.488544 17.7511 0.574874 17.8259 0.68101C17.9007 0.787146 17.9485 0.909898 17.9653 1.03867L18.856 7.84667C18.8799 8.02845 18.9656 8.1965 19.0986 8.32267L24.084 13.0453C24.1782 13.1347 24.2492 13.2456 24.2909 13.3686C24.3326 13.4916 24.3438 13.6228 24.3235 13.7511C24.3031 13.8793 24.2519 14.0007 24.1741 14.1047C24.0964 14.2087 23.9945 14.2922 23.8773 14.348L17.6773 17.2987C17.5113 17.3776 17.3776 17.5114 17.2986 17.6773Z" fill="white"/>
</svg>
